<svg xmlns="http://www.w3.org/2000/svg" xmlns:xlink="http://www.w3.org/1999/xlink" viewBox="0,0,256,256" width="48px" height="48px" fill-rule="nonzero"><g fill="none" fill-rule="nonzero" stroke="none" stroke-width="1" stroke-linecap="butt" stroke-linejoin="miter" stroke-miterlimit="10" stroke-dasharray="" stroke-dashoffset="0" font-family="none" font-weight="none" font-size="none" text-anchor="none" style="mix-blend-mode: normal"><g transform="scale(5.33333,5.33333)"><path d="M6,10c0,-2.209 1.791,-4 4,-4h28c2.209,0 4,1.791 4,4v28c0,2.209 -1.791,4 -4,4h-28c-2.209,0 -4,-1.791 -4,-4z" fill="#a880cb"></path><path d="M9,9v30h30v-30z" fill="#24004d"></path><path d="M20.904,27.984h-4.012l-0.78,2.827h-3.112l4.552,-13.811h2.691l4.582,13.81h-3.141zM17.532,25.66h2.721l-1.361,-4.923z" fill="#a880cb"></path><path d="M31.304,29.871c-0.577,0.752 -1.352,1.129 -2.322,1.129c-0.978,0 -1.719,-0.324 -2.224,-0.972c-0.506,-0.648 -0.758,-1.592 -0.758,-2.832v-7.196h2.785v7.263c0.013,0.999 0.358,1.499 1.033,1.499c0.636,0 1.096,-0.266 1.378,-0.797v-7.965h2.804v10.81h-2.617z" fill="#a880cb"></path></g></g></svg>