<svg width="200" height="200" viewBox="0 0 200 200" fill="none" xmlns="http://www.w3.org/2000/svg">
<path d="M138.832 137.698H61.832C56.632 137.698 52.332 133.398 52.332 128.198V71.198C52.332 65.998 56.632 61.698 61.832 61.698H138.832C144.032 61.698 148.332 65.998 148.332 71.198V128.198C148.332 133.398 144.032 137.698 138.832 137.698ZM61.832 65.698C58.832 65.698 56.332 68.198 56.332 71.198V128.198C56.332 131.198 58.832 133.698 61.832 133.698H138.832C141.832 133.698 144.332 131.198 144.332 128.198V71.198C144.332 68.198 141.832 65.698 138.832 65.698H61.832Z" fill="#ECEDEE"/>
<path d="M100.332 112.098C99.832 112.098 99.332 111.898 98.932 111.498L67.332 79.8981C66.532 79.0981 66.532 77.8981 67.332 77.0981C68.132 76.2981 69.332 76.2981 70.132 77.0981L100.332 107.198L131.132 76.3981C131.932 75.5981 133.132 75.5981 133.932 76.3981C134.732 77.1981 134.732 78.3981 133.932 79.1981L101.732 111.498C101.332 111.898 100.832 112.098 100.332 112.098Z" fill="#ECEDEE"/>
<path d="M69.032 122.198C68.532 122.198 68.032 121.998 67.632 121.598C66.832 120.798 66.832 119.598 67.632 118.798L88.332 98.098C89.132 97.298 90.332 97.298 91.132 98.098C91.932 98.898 91.932 100.098 91.132 100.898L70.532 121.598C70.132 121.998 69.532 122.198 69.032 122.198ZM132.632 122.198C132.132 122.198 131.632 121.998 131.232 121.598L110.532 100.898C109.732 100.098 109.732 98.898 110.532 98.098C111.332 97.298 112.532 97.298 113.332 98.098L134.032 118.798C134.832 119.598 134.832 120.798 134.032 121.598C133.632 121.998 133.132 122.198 132.632 122.198Z" fill="#ECEDEE"/>
</svg>
