<svg width="668" height="668" viewBox="0 0 668 668" fill="none" xmlns="http://www.w3.org/2000/svg">
<path d="M667.347 333.947C667.395 399.48 648.125 463.574 611.947 518.216C575.769 572.858 524.288 615.624 463.938 641.169C403.589 666.714 337.049 673.904 272.635 661.84C208.222 649.776 148.794 618.994 101.778 573.341C54.7633 527.688 22.2474 469.19 8.29519 405.16C-5.65698 341.129 -0.426392 274.406 23.3331 213.332C47.0926 152.257 88.327 99.541 141.882 61.7722C195.437 24.0034 258.936 2.85792 324.442 0.978906C330.746 0.163607 337.128 0.163607 343.432 0.978906C430.137 3.39045 512.484 39.5204 572.971 101.69C633.458 163.859 667.315 247.208 667.347 333.947ZM222.421 597.863C229.551 600.867 236.779 603.575 244.105 605.989C200.434 530.198 177.598 444.199 177.916 356.726H48.2315C52.4625 408.999 70.9359 459.113 101.645 501.625C132.354 544.137 174.125 577.421 222.421 597.863ZM69.8315 222.453C58.0196 250.336 50.7555 279.932 48.3158 310.116H177.916C177.653 223.17 200.153 137.67 243.179 62.1158C236.189 64.4456 229.27 67.0561 222.421 69.9473C153.705 99.0703 98.9925 153.753 69.8315 222.453ZM443.305 310.116C442.268 277.452 438.593 244.925 432.316 212.853C426.176 180.04 416.096 148.09 402.295 117.695C383.474 77.6105 359.811 51.4631 339.263 47.5052C335.712 47.4522 332.161 47.4522 328.61 47.5052C308.063 51.4631 284.4 77.6105 265.579 117.737C251.792 148.134 241.726 180.084 235.6 212.895C229.325 244.953 225.649 277.466 224.61 310.116H443.305ZM402.295 549.105C416.097 518.711 426.177 486.76 432.316 453.947C438.575 421.888 442.236 389.375 443.263 356.726H224.653C225.691 389.39 229.366 421.917 235.642 453.989C241.77 486.786 251.836 518.722 265.621 549.105C286.126 592.726 312.316 619.842 334 619.842C355.684 619.842 381.874 592.726 402.337 549.105H402.295ZM598.168 445.442C610.112 417.231 617.406 387.271 619.768 356.726H490C490.337 444.228 467.5 530.259 423.811 606.074C431.137 603.66 438.393 600.937 445.579 597.905C514.287 568.792 568.999 514.126 598.168 445.442ZM445.579 69.9473C438.722 67.0531 431.756 64.4266 424.695 62.0736C467.725 137.626 490.225 223.127 489.958 310.074H619.684C615.288 257.987 596.747 208.09 566.063 165.771C535.379 123.452 493.719 90.3182 445.579 69.9473Z" fill="#880000"/>
</svg>
