<svg width="77" height="77" viewBox="0 0 77 77" fill="none" xmlns="http://www.w3.org/2000/svg">
<path d="M67.375 59.3542C67.375 63.7849 63.7849 67.375 59.3542 67.375H17.6458C13.2167 67.375 9.625 63.7849 9.625 59.3542V17.6458C9.625 13.2151 13.2167 9.625 17.6458 9.625H59.3542C63.7849 9.625 67.375 13.2151 67.375 17.6458V59.3542Z" fill="#0078D4"/>
<path opacity="0.05" d="M48.125 59.3541V43.1536C48.125 40.4442 46.8112 38.8256 44.6087 38.8256C43.3013 38.8256 42.3404 39.5619 41.7549 41.0136C41.7276 41.1163 41.6891 41.535 41.7051 42.8007L41.7083 59.3541H30.4792V28.8749H41.7083V30.5769C43.3478 29.446 45.3578 28.8749 47.7047 28.8749C54.9989 28.8749 59.3526 33.8366 59.3526 42.1478L59.3542 59.3541H48.125ZM17.6458 59.3541V28.8749H23.1914C19.9783 28.8749 17.6458 26.5136 17.6458 23.2587C17.6458 20.0071 20.0168 17.6458 23.2829 17.6458C26.5105 17.6458 28.8092 19.9413 28.875 23.2266C28.875 26.5056 26.5024 28.8749 23.2364 28.8749H28.875V59.3541H17.6458Z" fill="black"/>
<path opacity="0.07" d="M48.9271 58.5522V43.1538C48.9271 39.9887 47.2732 38.0236 44.6087 38.0236C42.5313 38.0236 41.5046 39.4866 41.0105 40.7138C40.879 41.0331 40.8966 42.3003 40.903 42.841L40.9062 58.5522H31.2812V29.6772H40.9062V32.3048C42.1815 30.9846 44.2349 29.6772 47.7047 29.6772C54.4951 29.6772 58.5505 34.3389 58.5505 42.148L58.5521 58.5522H48.9271ZM18.4479 58.5522V29.6772H28.0729V58.5522H18.4479ZM23.1914 28.073C20.4435 28.073 18.4479 26.0485 18.4479 23.2589C18.4479 20.4709 20.482 18.448 23.2829 18.448C26.0484 18.448 28.0168 20.4195 28.0729 23.2429C28.0729 26.0485 26.0388 28.073 23.2363 28.073H23.1914Z" fill="black"/>
<path d="M19.25 30.4792H27.2708V57.75H19.25V30.4792ZM23.2364 27.2708H23.1914C20.798 27.2708 19.25 25.487 19.25 23.2588C19.25 20.9825 20.8461 19.25 23.2829 19.25C25.7228 19.25 27.2259 20.9825 27.2708 23.2588C27.2708 25.4854 25.7228 27.2708 23.2364 27.2708ZM57.75 57.75H49.7292V43.1537C49.7292 39.6277 47.7641 37.2215 44.6087 37.2215C42.2008 37.2215 40.8982 38.8449 40.2662 40.4138C40.0352 40.9752 40.1042 42.5281 40.1042 43.3125V57.75H32.0833V30.4792H40.1042V34.6757C41.2608 32.8854 43.0719 30.4792 47.7047 30.4792C53.4444 30.4792 57.7484 34.0885 57.7484 42.1479L57.75 57.75Z" fill="white"/>
</svg>
