<svg width="200" height="200" viewBox="0 0 200 200" fill="none" xmlns="http://www.w3.org/2000/svg">
<path d="M135.832 140.848H64.932C62.032 140.848 59.332 139.248 57.532 136.348C56.132 134.048 56.132 130.648 57.532 127.748L61.532 119.548C64.332 113.948 71.232 110.448 76.432 110.048C78.132 109.948 81.532 109.248 84.932 108.448C87.432 107.848 88.832 107.448 89.632 107.148C89.432 106.448 89.032 105.648 88.532 104.948C82.532 100.248 78.932 92.3481 78.932 83.8481C78.932 69.8481 88.532 58.5481 100.432 58.5481C112.332 58.5481 121.932 69.9481 121.932 83.8481C121.932 92.3481 118.332 100.248 112.332 104.948C111.832 105.648 111.432 106.348 111.232 107.048C112.032 107.348 113.432 107.748 115.832 108.348C118.832 109.048 122.432 109.648 124.232 109.848C129.532 110.348 136.332 113.648 139.132 119.248L143.032 127.148C144.532 130.148 144.532 133.948 143.032 136.248C141.432 139.148 138.632 140.848 135.832 140.848ZM100.432 62.6481C90.732 62.6481 82.932 72.2481 82.932 83.9481C82.932 91.3481 86.032 98.0481 91.132 102.048C91.232 102.148 91.432 102.248 91.532 102.448C92.932 104.248 93.732 106.248 93.732 108.348C93.732 108.948 93.532 109.548 93.032 109.948C92.632 110.248 91.632 111.148 85.832 112.548C83.132 113.148 79.032 113.948 76.732 114.148C72.632 114.548 67.132 117.348 65.132 121.448L61.232 129.648C60.432 131.348 60.332 133.348 61.032 134.448C61.832 135.748 63.332 137.048 65.032 137.048H135.932C137.632 137.048 139.132 135.748 139.932 134.448C140.532 133.448 140.632 131.048 139.732 129.248L135.832 121.348C133.832 117.348 128.332 114.548 124.232 114.148C122.232 113.948 118.432 113.348 115.232 112.548C109.432 111.148 108.432 110.248 108.032 110.048C107.632 109.648 107.332 109.048 107.332 108.448C107.332 106.348 108.132 104.348 109.532 102.548C109.632 102.448 109.732 102.248 109.932 102.148C115.032 98.2481 118.132 91.4481 118.132 84.1481C117.932 72.2481 110.132 62.6481 100.432 62.6481Z" fill="#ECEDEE"/>
</svg>
